HIERARCHY
ROOT pelvis
{
	OFFSET 0.003123 -0.351407 0.012037
	CHANNELS 6 Xposition Yposition Zposition Zrotation Yrotation Xrotation 
	JOINT left_hip
	{
		OFFSET 0.058189 -0.092763 -0.026001
		CHANNELS 3 Zrotation Yrotation Xrotation
		JOINT left_knee
		{
			OFFSET 0.054695 -0.378753 -0.009396
			CHANNELS 3 Zrotation Yrotation Xrotation
			JOINT left_ankle
			{
				OFFSET -0.043453 -0.403059 -0.031876
				CHANNELS 3 Zrotation Yrotation Xrotation
				JOINT left_foot
				{
					OFFSET 0.047257 -0.057997 0.118216
					CHANNELS 3 Zrotation Yrotation Xrotation
					End Site
					{
						OFFSET 0.000000 0.000000 0.000000
					}
				}
			}
		}
	}
	JOINT right_hip
	{
		OFFSET -0.063267 -0.103908 -0.021250
		CHANNELS 3 Zrotation Yrotation Xrotation
		JOINT right_knee
		{
			OFFSET -0.044210 -0.362380 -0.016824
			CHANNELS 3 Zrotation Yrotation Xrotation
			JOINT right_ankle
			{
				OFFSET 0.015417 -0.410728 -0.020192
				CHANNELS 3 Zrotation Yrotation Xrotation
				JOINT right_foot
				{
					OFFSET -0.038812 -0.058328 0.119049
					CHANNELS 3 Zrotation Yrotation Xrotation
					End Site
					{
						OFFSET 0.000000 0.000000 0.000000
					}
				}
			}
		}
	}
	JOINT spine_1
	{
		OFFSET -0.002763 0.109891 -0.027618
		CHANNELS 3 Zrotation Yrotation Xrotation
		JOINT spine_2
		{
			OFFSET 0.009448 0.131853 -0.005940
			CHANNELS 3 Zrotation Yrotation Xrotation
			JOINT spine_3
			{
				OFFSET -0.011330 0.052235 0.028447
				CHANNELS 3 Zrotation Yrotation Xrotation
				JOINT neck
				{
					OFFSET -0.012164 0.165167 -0.031615
					CHANNELS 3 Zrotation Yrotation Xrotation
					JOINT head
					{
						OFFSET 0.024783 0.160452 0.020737
						CHANNELS 3 Zrotation Yrotation Xrotation
						End Site
						{
							OFFSET 0.000000 0.000000 0.000000
						}
					}
				}
				JOINT left_collar
				{
					OFFSET 0.046364 0.084944 -0.007220
					CHANNELS 3 Zrotation Yrotation Xrotation
					JOINT left_shoulder
					{
						OFFSET 0.119239 0.057728 -0.015461
						CHANNELS 3 Zrotation Yrotation Xrotation
						JOINT left_elbow
						{
							OFFSET 0.254123 -0.072151 -0.042459
							CHANNELS 3 Zrotation Yrotation Xrotation
							JOINT left_wrist
							{
								OFFSET 0.251987 0.023221 -0.002472
								CHANNELS 3 Zrotation Yrotation Xrotation
								JOINT left_index_1
								{
									OFFSET 0.101902 -0.008688 0.019351
									CHANNELS 3 Zrotation Yrotation Xrotation
									JOINT left_index_2
									{
										OFFSET 0.030149 -0.011154 0.001151
										CHANNELS 3 Zrotation Yrotation Xrotation
										JOINT left_index_3
										{
											OFFSET 0.006504 -0.021577 -0.002433
											CHANNELS 3 Zrotation Yrotation Xrotation
											End Site
											{
												OFFSET 0.000000 0.000000 0.000000
											}
										}
									}
								}
								JOINT left_middle_1
								{
									OFFSET 0.109398 -0.006328 -0.003981
									CHANNELS 3 Zrotation Yrotation Xrotation
									JOINT left_middle_2
									{
										OFFSET 0.026472 -0.015218 -0.004641
										CHANNELS 3 Zrotation Yrotation Xrotation
										JOINT left_middle_3
										{
											OFFSET 0.005022 -0.023347 -0.001911
											CHANNELS 3 Zrotation Yrotation Xrotation
											End Site
											{
												OFFSET 0.000000 0.000000 0.000000
											}
										}
									}
								}
								JOINT left_pinky_1
								{
									OFFSET 0.084047 -0.014539 -0.043750
									CHANNELS 3 Zrotation Yrotation Xrotation
									JOINT left_pinky_2
									{
										OFFSET 0.012124 -0.014448 -0.005375
										CHANNELS 3 Zrotation Yrotation Xrotation
										JOINT left_pinky_3
										{
											OFFSET 0.003798 -0.018853 0.000167
											CHANNELS 3 Zrotation Yrotation Xrotation
											End Site
											{
												OFFSET 0.000000 0.000000 0.000000
											}
										}
									}
								}
								JOINT left_ring_1
								{
									OFFSET 0.097444 -0.009268 -0.027345
									CHANNELS 3 Zrotation Yrotation Xrotation
									JOINT left_ring_2
									{
										OFFSET 0.023561 -0.016057 -0.001895
										CHANNELS 3 Zrotation Yrotation Xrotation
										JOINT left_ring_3
										{
											OFFSET 0.004257 -0.023548 0.000814
											CHANNELS 3 Zrotation Yrotation Xrotation
											End Site
											{
												OFFSET 0.000000 0.000000 0.000000
											}
										}
									}
								}
								JOINT left_thumb_1
								{
									OFFSET 0.040636 -0.017977 0.025611
									CHANNELS 3 Zrotation Yrotation Xrotation
									JOINT left_thumb_2
									{
										OFFSET 0.021637 -0.017639 0.011623
										CHANNELS 3 Zrotation Yrotation Xrotation
										JOINT left_thumb_3
										{
											OFFSET 0.024002 -0.008356 0.006548
											CHANNELS 3 Zrotation Yrotation Xrotation
											End Site
											{
												OFFSET 0.000000 0.000000 0.000000
											}
										}
									}
								}
							}
						}
					}
				}
				JOINT right_collar
				{
					OFFSET -0.047695 0.084339 -0.013400
					CHANNELS 3 Zrotation Yrotation Xrotation
					JOINT right_shoulder
					{
						OFFSET -0.102578 0.053524 -0.012669
						CHANNELS 3 Zrotation Yrotation Xrotation
						JOINT right_elbow
						{
							OFFSET -0.271150 -0.036492 -0.026467
							CHANNELS 3 Zrotation Yrotation Xrotation
							JOINT right_wrist
							{
								OFFSET -0.249267 -0.004533 -0.015325
								CHANNELS 3 Zrotation Yrotation Xrotation
								JOINT right_index_1
								{
									OFFSET -0.099881 -0.011783 0.019600
									CHANNELS 3 Zrotation Yrotation Xrotation
									JOINT right_index_2
									{
										OFFSET -0.030148 -0.011154 0.001151
										CHANNELS 3 Zrotation Yrotation Xrotation
										JOINT right_index_3
										{
											OFFSET -0.006505 -0.021577 -0.002432
											CHANNELS 3 Zrotation Yrotation Xrotation
											End Site
											{
												OFFSET 0.000000 0.000000 0.000000
											}
										}
									}
								}
								JOINT right_middle_1
								{
									OFFSET -0.107376 -0.009422 -0.003734
									CHANNELS 3 Zrotation Yrotation Xrotation
									JOINT right_middle_2
									{
										OFFSET -0.026472 -0.015218 -0.004641
										CHANNELS 3 Zrotation Yrotation Xrotation
										JOINT right_middle_3
										{
											OFFSET -0.005022 -0.023347 -0.001911
											CHANNELS 3 Zrotation Yrotation Xrotation
											End Site
											{
												OFFSET 0.000000 0.000000 0.000000
											}
										}
									}
								}
								JOINT right_pinky_1
								{
									OFFSET -0.082027 -0.017634 -0.043503
									CHANNELS 3 Zrotation Yrotation Xrotation
									JOINT right_pinky_2
									{
										OFFSET -0.012123 -0.014448 -0.005374
										CHANNELS 3 Zrotation Yrotation Xrotation
										JOINT right_pinky_3
										{
											OFFSET -0.003798 -0.018852 0.000167
											CHANNELS 3 Zrotation Yrotation Xrotation
											End Site
											{
												OFFSET 0.000000 0.000000 0.000000
											}
										}
									}
								}
								JOINT right_ring_1
								{
									OFFSET -0.095423 -0.012362 -0.027099
									CHANNELS 3 Zrotation Yrotation Xrotation
									JOINT right_ring_2
									{
										OFFSET -0.023561 -0.016057 -0.001895
										CHANNELS 3 Zrotation Yrotation Xrotation
										JOINT right_ring_3
										{
											OFFSET -0.004257 -0.023548 0.000816
											CHANNELS 3 Zrotation Yrotation Xrotation
											End Site
											{
												OFFSET 0.000000 0.000000 0.000000
											}
										}
									}
								}
								JOINT right_thumb_1
								{
									OFFSET -0.038613 -0.021074 0.025861
									CHANNELS 3 Zrotation Yrotation Xrotation
									JOINT right_thumb_2
									{
										OFFSET -0.021636 -0.017639 0.011623
										CHANNELS 3 Zrotation Yrotation Xrotation
										JOINT right_thumb_3
										{
											OFFSET -0.024004 -0.008353 0.006547
											CHANNELS 3 Zrotation Yrotation Xrotation
											End Site
											{
												OFFSET 0.000000 0.000000 0.000000
											}
										}
									}
								}
							}
						}
					}
				}
			}
		}
	}
}
MOTION
Frames: 4
Frame Time: 0.050000
0.113094 0.952705 0.954865 173.389508 -73.878154 -172.495679 -34.222655 9.054128 -38.097289 40.435263 0.818473 18.798284 -82.328083 12.235121 48.029444 0.000000 0.000000 0.000000 -4.351490 3.806236 -3.756185 6.774837 6.547531 -5.738368 -48.016698 5.639664 58.862704 0.000000 0.000000 0.000000 2.942779 0.541410 25.992744 1.406278 -1.741540 -23.089255 -5.209765 -32.841896 32.493681 -2.161074 1.031123 -13.173768 0.000000 0.000000 0.000000 4.575479 16.445600 2.408178 -63.720315 -19.162408 32.513827 -19.379226 -19.008488 4.826391 12.272788 -17.468381 -41.985593 0.181380 -3.556796 -0.016818 1.284849 -13.226402 -14.049675 0.000000 0.000000 0.000000 -17.229106 -12.194869 -1.951684 -3.883570 -11.636159 -20.743959 0.000000 0.000000 0.000000 -3.055497 -18.313241 -18.128382 -1.785689 1.668610 3.943067 0.000000 0.000000 0.000000 -18.720454 -14.118864 -0.952990 -1.822625 -7.809311 -15.178207 0.000000 0.000000 0.000000 53.262967 9.304100 -5.434234 -18.337431 4.963784 8.241579 0.000000 0.000000 0.000000 -17.292746 28.173271 11.442823 -8.533348 44.897862 -30.039702 6.722826 29.381308 -8.063416 5.631151 18.684520 -8.966595 8.184055 5.979058 -3.291830 -14.093618 5.793319 -13.735182 0.000000 0.000000 0.000000 9.532195 11.668251 -8.765821 -15.198751 2.588421 -4.804648 0.000000 0.000000 0.000000 -8.181056 20.010045 -16.977782 3.167875 -4.578650 0.274632 0.000000 0.000000 0.000000 10.230504 11.091852 -7.752783 -8.767966 -0.848296 -3.376917 0.000000 0.000000 0.000000 -16.279637 -10.580963 7.931123 22.561589 15.991379 4.502050 0.000000 0.000000 0.000000 
0.103201 0.948998 0.933746 174.253810 -73.977669 -172.216891 -33.761003 8.960316 -37.905994 28.411087 -1.320534 14.851198 -77.381695 7.464166 45.852377 0.000000 0.000000 0.000000 -3.412325 3.370988 -4.350253 8.049436 6.959240 -4.956532 -50.818886 5.317597 58.107604 0.000000 0.000000 0.000000 3.046620 0.293505 25.403742 2.669506 -1.196858 -22.965118 -6.285612 -31.984552 31.961583 -1.858545 0.862901 -12.437509 0.000000 0.000000 0.000000 5.808772 15.624554 1.499982 -64.096043 -15.988098 31.528387 -20.543625 -19.783165 5.289061 11.848990 -15.938856 -42.147041 -0.263725 -2.526207 0.054441 1.428429 -14.900498 -18.778888 0.000000 0.000000 0.000000 -16.264899 -10.293147 -1.889709 -1.712692 -11.632476 -22.680781 0.000000 0.000000 0.000000 -1.900073 -17.819882 -18.402030 -0.273229 1.370782 3.525954 0.000000 0.000000 0.000000 -19.271029 -15.274188 -1.283925 2.263615 -5.307731 -13.004768 0.000000 0.000000 0.000000 54.137863 11.389508 -3.369387 -25.990235 -3.818538 7.465262 0.000000 0.000000 0.000000 -16.803998 27.937355 11.235514 -9.915758 44.740284 -29.879066 6.465348 29.694010 -8.158988 4.099993 19.835521 -12.967911 6.606873 6.663461 -3.404337 -15.383347 5.847275 -14.262113 0.000000 0.000000 0.000000 8.107932 12.501479 -8.970079 -16.797761 2.751750 -4.109436 0.000000 0.000000 0.000000 -8.176452 19.907200 -18.107154 2.650782 -3.054938 0.887762 0.000000 0.000000 0.000000 9.753333 11.319229 -7.876908 -10.300815 -0.410979 -3.496590 0.000000 0.000000 0.000000 -18.316915 -9.427332 5.185980 23.082338 14.104966 4.997138 0.000000 0.000000 0.000000 
0.091423 0.945130 0.912628 177.007596 -73.480099 -173.887478 -32.509444 9.029097 -37.931461 20.055194 -1.812368 11.945068 -76.163442 6.079967 44.600484 0.000000 0.000000 0.000000 -2.743494 3.121043 -4.910971 10.773571 8.257824 -4.031840 -53.424059 4.802005 58.256734 0.000000 0.000000 0.000000 3.732899 -0.151920 24.760004 2.229753 -1.176360 -22.921705 -5.883005 -32.005541 32.028085 -2.682006 1.058439 -12.867100 0.000000 0.000000 0.000000 5.033426 16.790793 1.585313 -64.284083 -15.175633 31.330066 -20.719253 -19.028824 5.063928 11.016773 -16.472943 -41.474732 -2.251815 -3.586414 0.076128 4.686067 -9.940470 -13.757036 0.000000 0.000000 0.000000 -16.554326 -11.001373 -2.073255 -4.210721 -10.879125 -19.442457 0.000000 0.000000 0.000000 0.765135 -14.542582 -15.782760 -5.882537 0.657078 1.593177 0.000000 0.000000 0.000000 -19.094042 -16.035618 -1.857480 1.538261 -4.689185 -11.441214 0.000000 0.000000 0.000000 52.183379 11.072768 -4.297163 -25.641141 -3.265989 7.491287 0.000000 0.000000 0.000000 -17.574079 28.201690 11.526736 -11.854922 45.028295 -31.306899 5.676716 30.189471 -8.726535 2.817743 20.461623 -15.481676 5.242049 6.750596 -3.372531 -16.095677 5.908218 -14.909226 0.000000 0.000000 0.000000 7.529251 12.381613 -8.767056 -18.719331 3.005698 -4.502567 0.000000 0.000000 0.000000 -8.083711 20.119811 -19.077639 1.071397 -2.305067 1.982735 0.000000 0.000000 0.000000 9.293503 11.727649 -8.106899 -12.179397 -0.157435 -3.206083 0.000000 0.000000 0.000000 -20.950171 -8.762296 2.665138 24.054272 11.891719 5.538440 0.000000 0.000000 0.000000 
0.077290 0.940779 0.891510 179.021483 -73.320170 -175.307534 -31.752267 8.964509 -37.601314 16.625548 -1.695967 10.734565 -77.191300 6.205437 43.930397 0.000000 0.000000 0.000000 -2.251580 2.910170 -4.685164 13.160588 9.459056 -3.263750 -55.406697 3.889861 58.584414 0.000000 0.000000 0.000000 4.457312 -0.506988 24.379473 1.816702 -1.242870 -23.034891 -6.015307 -32.058295 32.252093 -2.991229 1.110651 -12.705190 0.000000 0.000000 0.000000 3.883022 17.914787 1.737681 -63.618403 -14.863166 30.359762 -21.829442 -18.862762 5.243989 9.925490 -16.151743 -38.989457 0.996109 -1.855798 0.018610 -5.204596 -16.106257 -16.256883 0.000000 0.000000 0.000000 -15.916666 -8.807790 -1.890693 -9.307697 -13.896455 -21.726295 0.000000 0.000000 0.000000 -3.209359 -16.159911 -16.466019 -3.623991 1.219472 2.799185 0.000000 0.000000 0.000000 -20.540156 -13.547684 -0.511244 -1.812588 -6.800029 -13.680858 0.000000 0.000000 0.000000 51.591790 10.039149 -6.102723 -19.717594 3.128713 7.690229 0.000000 0.000000 0.000000 -17.655003 28.344331 11.290881 -12.461283 45.325067 -32.127428 5.527186 31.063458 -9.225146 2.579551 20.565600 -15.182224 4.067027 6.611321 -3.315867 -17.337232 6.101652 -15.589394 0.000000 0.000000 0.000000 5.878950 11.992829 -8.259674 -19.778304 3.140612 -3.987330 0.000000 0.000000 0.000000 -7.905868 19.735946 -18.576026 -0.450256 -1.908575 2.205059 0.000000 0.000000 0.000000 8.921408 11.088533 -7.685406 -13.723073 -0.049833 -3.688744 0.000000 0.000000 0.000000 -22.847654 -8.306992 0.785343 23.393593 10.017038 5.546626 0.000000 0.000000 0.000000 
